<svg xmlns="http://www.w3.org/2000/svg" xmlns:xlink="http://www.w3.org/1999/xlink" zoomAndPan="magnify" preserveAspectRatio="xMidYMid meet" version="1.0" viewBox="26.87 26.87 321.26 321.26"><defs><g/><clipPath id="58904b5c74"><path d="M 26.871094 26.871094 L 348.128906 26.871094 L 348.128906 348.128906 L 26.871094 348.128906 Z M 26.871094 26.871094 " clip-rule="nonzero"/></clipPath><clipPath id="478a049bc3"><path d="M 187.5 26.871094 C 98.789062 26.871094 26.871094 98.789062 26.871094 187.5 C 26.871094 276.210938 98.789062 348.128906 187.5 348.128906 C 276.210938 348.128906 348.128906 276.210938 348.128906 187.5 C 348.128906 98.789062 276.210938 26.871094 187.5 26.871094 Z M 187.5 26.871094 " clip-rule="nonzero"/></clipPath><clipPath id="c76c362752"><path d="M 39.402344 39.402344 L 335.597656 39.402344 L 335.597656 335.597656 L 39.402344 335.597656 Z M 39.402344 39.402344 " clip-rule="nonzero"/></clipPath><clipPath id="1d0dab36e5"><path d="M 187.5 39.402344 C 105.707031 39.402344 39.402344 105.707031 39.402344 187.5 C 39.402344 269.292969 105.707031 335.597656 187.5 335.597656 C 269.292969 335.597656 335.597656 269.292969 335.597656 187.5 C 335.597656 105.707031 269.292969 39.402344 187.5 39.402344 Z M 187.5 39.402344 " clip-rule="nonzero"/></clipPath><clipPath id="d555423361"><path d="M 39.402344 39.402344 L 335.578125 39.402344 L 335.578125 335.578125 L 39.402344 335.578125 Z M 39.402344 39.402344 " clip-rule="nonzero"/></clipPath><clipPath id="e0a931a23d"><path d="M 187.5 39.402344 C 105.707031 39.402344 39.402344 105.707031 39.402344 187.5 C 39.402344 269.292969 105.707031 335.597656 187.5 335.597656 C 269.292969 335.597656 335.597656 269.292969 335.597656 187.5 C 335.597656 105.707031 269.292969 39.402344 187.5 39.402344 Z M 187.5 39.402344 " clip-rule="nonzero"/></clipPath><clipPath id="5492d7890e"><path d="M 142.730469 77.640625 L 211 77.640625 L 211 146 L 142.730469 146 Z M 142.730469 77.640625 " clip-rule="nonzero"/></clipPath><clipPath id="f0249fabb7"><path d="M 197 111 L 231.941406 111 L 231.941406 146.628906 L 197 146.628906 Z M 197 111 " clip-rule="nonzero"/></clipPath><clipPath id="95bfa73465"><path d="M 142.730469 79.171875 L 208 79.171875 L 208 144.59375 L 142.730469 144.59375 Z M 142.730469 79.171875 " clip-rule="nonzero"/></clipPath><clipPath id="79873ea89d"><path d="M 195 111 L 228.371094 111 L 228.371094 144.59375 L 195 144.59375 Z M 195 111 " clip-rule="nonzero"/></clipPath></defs><g clip-path="url(#58904b5c74)"><g clip-path="url(#478a049bc3)"><path fill="#f0dfc8" d="M 26.871094 26.871094 L 348.128906 26.871094 L 348.128906 348.128906 L 26.871094 348.128906 Z M 26.871094 26.871094 " fill-opacity="1" fill-rule="nonzero"/></g></g><g clip-path="url(#c76c362752)"><g clip-path="url(#1d0dab36e5)"><path fill="#e16539" d="M 39.402344 39.402344 L 335.597656 39.402344 L 335.597656 335.597656 L 39.402344 335.597656 Z M 39.402344 39.402344 " fill-opacity="1" fill-rule="nonzero"/></g></g><g clip-path="url(#d555423361)"><g clip-path="url(#e0a931a23d)"><path stroke-linecap="butt" transform="matrix(1.189465, 0, 0, 1.189465, 39.401622, 39.401617)" fill="none" stroke-linejoin="miter" d="M 124.508425 0.000610777 C 55.743906 0.000610777 0.000606994 55.74391 0.000606994 124.508429 C 0.000606994 193.272948 55.743906 249.016247 124.508425 249.016247 C 193.272944 249.016247 249.016243 193.272948 249.016243 124.508429 C 249.016243 55.74391 193.272944 0.000610777 124.508425 0.000610777 Z M 124.508425 0.000610777 " stroke="#303030" stroke-width="7.566429" stroke-opacity="1" stroke-miterlimit="4"/></g></g><g clip-path="url(#5492d7890e)"><path fill="#f0dfc8" d="M 177.550781 95.894531 C 177.652344 96.84375 177.835938 97.777344 178.097656 98.695312 C 178.359375 99.617188 178.699219 100.503906 179.109375 101.367188 C 179.523438 102.230469 180.007812 103.050781 180.558594 103.828125 C 181.109375 104.609375 181.726562 105.335938 182.402344 106.011719 C 183.078125 106.6875 183.804688 107.304688 184.585938 107.855469 C 185.363281 108.40625 186.183594 108.890625 187.046875 109.304688 C 187.910156 109.714844 188.796875 110.054688 189.71875 110.316406 C 190.636719 110.578125 191.570312 110.761719 192.519531 110.863281 C 198.570312 111.46875 204.632812 111.746094 210.707031 111.695312 C 204.632812 111.644531 198.570312 111.921875 192.519531 112.523438 C 191.570312 112.628906 190.636719 112.808594 189.71875 113.070312 C 188.796875 113.335938 187.910156 113.671875 187.046875 114.085938 C 186.183594 114.5 185.363281 114.980469 184.585938 115.535156 C 183.804688 116.085938 183.078125 116.699219 182.402344 117.375 C 181.726562 118.050781 181.113281 118.777344 180.558594 119.558594 C 180.007812 120.339844 179.523438 121.160156 179.109375 122.019531 C 178.699219 122.882812 178.359375 123.773438 178.097656 124.691406 C 177.835938 125.609375 177.652344 126.546875 177.550781 127.496094 C 176.945312 133.542969 176.671875 139.605469 176.71875 145.683594 C 176.769531 139.605469 176.492188 133.542969 175.890625 127.496094 C 175.785156 126.546875 175.605469 125.609375 175.34375 124.691406 C 175.078125 123.773438 174.742188 122.882812 174.328125 122.019531 C 173.914062 121.160156 173.433594 120.339844 172.882812 119.558594 C 172.328125 118.777344 171.714844 118.050781 171.039062 117.375 C 170.363281 116.699219 169.636719 116.085938 168.855469 115.53125 C 168.074219 114.980469 167.253906 114.5 166.394531 114.085938 C 165.53125 113.671875 164.640625 113.335938 163.722656 113.070312 C 162.804688 112.808594 161.867188 112.625 160.917969 112.523438 C 154.871094 111.921875 148.808594 111.644531 142.730469 111.695312 C 148.808594 111.742188 154.871094 111.46875 160.917969 110.863281 C 161.867188 110.761719 162.804688 110.578125 163.722656 110.316406 C 164.640625 110.054688 165.53125 109.714844 166.394531 109.304688 C 167.253906 108.890625 168.074219 108.40625 168.855469 107.855469 C 169.636719 107.300781 170.363281 106.6875 171.039062 106.011719 C 171.714844 105.335938 172.328125 104.609375 172.878906 103.828125 C 173.433594 103.050781 173.914062 102.230469 174.328125 101.367188 C 174.742188 100.503906 175.078125 99.613281 175.34375 98.695312 C 175.605469 97.777344 175.785156 96.84375 175.890625 95.894531 C 176.492188 89.84375 176.769531 83.78125 176.71875 77.707031 C 176.671875 83.78125 176.945312 89.84375 177.550781 95.894531 Z M 177.550781 95.894531 " fill-opacity="1" fill-rule="nonzero"/></g><g clip-path="url(#f0249fabb7)"><path fill="#f0dfc8" d="M 215.496094 120.898438 C 215.546875 121.378906 215.640625 121.851562 215.773438 122.316406 C 215.90625 122.78125 216.078125 123.230469 216.285156 123.667969 C 216.496094 124.105469 216.738281 124.519531 217.019531 124.914062 C 217.296875 125.308594 217.609375 125.675781 217.949219 126.019531 C 218.292969 126.359375 218.660156 126.671875 219.054688 126.949219 C 219.449219 127.230469 219.867188 127.476562 220.300781 127.683594 C 220.738281 127.894531 221.1875 128.0625 221.652344 128.195312 C 222.117188 128.328125 222.589844 128.421875 223.070312 128.472656 C 226.132812 128.777344 229.199219 128.917969 232.277344 128.894531 C 229.199219 128.867188 226.132812 129.007812 223.070312 129.3125 C 222.589844 129.367188 222.117188 129.457031 221.652344 129.589844 C 221.1875 129.722656 220.738281 129.894531 220.300781 130.101562 C 219.867188 130.3125 219.449219 130.558594 219.054688 130.835938 C 218.660156 131.117188 218.292969 131.425781 217.949219 131.769531 C 217.609375 132.109375 217.296875 132.480469 217.019531 132.875 C 216.738281 133.269531 216.496094 133.683594 216.285156 134.121094 C 216.078125 134.554688 215.90625 135.007812 215.773438 135.472656 C 215.640625 135.9375 215.546875 136.410156 215.496094 136.890625 C 215.191406 139.949219 215.050781 143.019531 215.074219 146.09375 C 215.101562 143.019531 214.960938 139.949219 214.65625 136.890625 C 214.605469 136.410156 214.511719 135.9375 214.378906 135.472656 C 214.246094 135.007812 214.074219 134.554688 213.867188 134.121094 C 213.65625 133.683594 213.414062 133.269531 213.132812 132.875 C 212.851562 132.480469 212.542969 132.109375 212.199219 131.769531 C 211.859375 131.425781 211.492188 131.117188 211.097656 130.835938 C 210.703125 130.558594 210.285156 130.3125 209.851562 130.101562 C 209.414062 129.894531 208.964844 129.722656 208.5 129.589844 C 208.035156 129.457031 207.558594 129.367188 207.078125 129.3125 C 204.019531 129.007812 200.953125 128.867188 197.875 128.894531 C 200.953125 128.917969 204.019531 128.777344 207.078125 128.472656 C 207.558594 128.421875 208.035156 128.328125 208.5 128.195312 C 208.964844 128.0625 209.414062 127.894531 209.851562 127.683594 C 210.285156 127.476562 210.703125 127.230469 211.097656 126.949219 C 211.492188 126.671875 211.859375 126.359375 212.199219 126.019531 C 212.542969 125.675781 212.851562 125.308594 213.132812 124.914062 C 213.414062 124.519531 213.65625 124.105469 213.867188 123.667969 C 214.074219 123.230469 214.246094 122.78125 214.378906 122.316406 C 214.511719 121.851562 214.605469 121.378906 214.65625 120.898438 C 214.960938 117.835938 215.101562 114.769531 215.078125 111.695312 C 215.050781 114.769531 215.191406 117.835938 215.496094 120.898438 Z M 215.496094 120.898438 " fill-opacity="1" fill-rule="nonzero"/></g><path fill="#f0dfc8" d="M 202.566406 86.957031 C 202.632812 87.546875 202.792969 88.109375 203.050781 88.648438 C 203.304688 89.183594 203.644531 89.664062 204.066406 90.082031 C 204.484375 90.503906 204.964844 90.84375 205.5 91.097656 C 206.039062 91.355469 206.601562 91.515625 207.191406 91.582031 C 209.0625 91.769531 210.933594 91.855469 212.8125 91.839844 C 210.933594 91.824219 209.0625 91.90625 207.191406 92.09375 C 206.601562 92.160156 206.039062 92.320312 205.5 92.578125 C 204.964844 92.832031 204.484375 93.171875 204.066406 93.59375 C 203.644531 94.015625 203.304688 94.492188 203.050781 95.027344 C 202.792969 95.566406 202.632812 96.128906 202.566406 96.71875 C 202.378906 98.589844 202.296875 100.460938 202.308594 102.339844 C 202.324219 100.460938 202.242188 98.589844 202.054688 96.71875 C 201.988281 96.128906 201.828125 95.566406 201.570312 95.027344 C 201.3125 94.492188 200.976562 94.015625 200.554688 93.59375 C 200.132812 93.171875 199.65625 92.832031 199.121094 92.578125 C 198.582031 92.320312 198.019531 92.160156 197.429688 92.09375 C 195.558594 91.90625 193.6875 91.824219 191.808594 91.839844 C 193.6875 91.855469 195.558594 91.769531 197.429688 91.582031 C 198.019531 91.515625 198.582031 91.355469 199.117188 91.097656 C 199.65625 90.84375 200.132812 90.503906 200.554688 90.082031 C 200.972656 89.660156 201.3125 89.183594 201.570312 88.648438 C 201.828125 88.109375 201.988281 87.546875 202.050781 86.957031 C 202.238281 85.085938 202.324219 83.214844 202.308594 81.335938 C 202.296875 83.214844 202.378906 85.085938 202.566406 86.957031 Z M 202.566406 86.957031 " fill-opacity="1" fill-rule="nonzero"/><g clip-path="url(#95bfa73465)"><path fill="#303030" d="M 175.996094 96.605469 C 176.09375 97.515625 176.269531 98.40625 176.519531 99.285156 C 176.769531 100.164062 177.09375 101.015625 177.488281 101.835938 C 177.882812 102.660156 178.34375 103.445312 178.871094 104.191406 C 179.398438 104.933594 179.984375 105.628906 180.628906 106.277344 C 181.277344 106.921875 181.972656 107.507812 182.714844 108.035156 C 183.460938 108.5625 184.246094 109.023438 185.070312 109.417969 C 185.890625 109.8125 186.742188 110.136719 187.621094 110.386719 C 188.5 110.636719 189.390625 110.8125 190.300781 110.910156 C 196.078125 111.488281 201.867188 111.75 207.675781 111.703125 C 201.867188 111.65625 196.078125 111.917969 190.300781 112.496094 C 189.390625 112.59375 188.5 112.769531 187.621094 113.019531 C 186.742188 113.269531 185.890625 113.59375 185.070312 113.988281 C 184.246094 114.382812 183.460938 114.84375 182.714844 115.371094 C 181.972656 115.898438 181.277344 116.484375 180.628906 117.128906 C 179.984375 117.777344 179.398438 118.472656 178.871094 119.214844 C 178.34375 119.960938 177.882812 120.746094 177.488281 121.570312 C 177.09375 122.390625 176.769531 123.242188 176.519531 124.121094 C 176.269531 125 176.09375 125.890625 175.996094 126.800781 C 175.417969 132.578125 175.15625 138.367188 175.203125 144.175781 C 175.25 138.367188 174.988281 132.578125 174.410156 126.800781 C 174.3125 125.890625 174.136719 125 173.886719 124.121094 C 173.636719 123.242188 173.3125 122.390625 172.917969 121.570312 C 172.523438 120.746094 172.0625 119.960938 171.535156 119.214844 C 171.007812 118.472656 170.421875 117.777344 169.777344 117.128906 C 169.128906 116.484375 168.433594 115.898438 167.691406 115.371094 C 166.945312 114.84375 166.160156 114.382812 165.335938 113.988281 C 164.515625 113.59375 163.664062 113.269531 162.785156 113.019531 C 161.90625 112.769531 161.015625 112.59375 160.105469 112.496094 C 154.328125 111.917969 148.539062 111.65625 142.730469 111.703125 C 148.539062 111.75 154.328125 111.488281 160.105469 110.910156 C 161.015625 110.8125 161.90625 110.636719 162.785156 110.386719 C 163.664062 110.136719 164.515625 109.8125 165.335938 109.417969 C 166.160156 109.023438 166.945312 108.5625 167.6875 108.035156 C 168.433594 107.507812 169.128906 106.921875 169.773438 106.273438 C 170.421875 105.628906 171.007812 104.933594 171.535156 104.1875 C 172.0625 103.445312 172.523438 102.660156 172.917969 101.835938 C 173.3125 101.015625 173.636719 100.164062 173.886719 99.285156 C 174.136719 98.40625 174.3125 97.515625 174.410156 96.605469 C 174.988281 90.828125 175.25 85.039062 175.203125 79.230469 C 175.15625 85.039062 175.417969 90.828125 175.996094 96.605469 Z M 175.996094 96.605469 " fill-opacity="1" fill-rule="nonzero"/></g><g clip-path="url(#79873ea89d)"><path fill="#303030" d="M 212.246094 120.496094 C 212.296875 120.953125 212.386719 121.40625 212.511719 121.851562 C 212.640625 122.296875 212.804688 122.726562 213.003906 123.140625 C 213.203125 123.558594 213.4375 123.957031 213.703125 124.332031 C 213.96875 124.710938 214.265625 125.0625 214.59375 125.386719 C 214.921875 125.714844 215.273438 126.011719 215.648438 126.277344 C 216.027344 126.546875 216.421875 126.777344 216.839844 126.980469 C 217.257812 127.179688 217.6875 127.34375 218.128906 127.46875 C 218.574219 127.59375 219.027344 127.683594 219.484375 127.734375 C 222.410156 128.023438 225.339844 128.160156 228.277344 128.136719 C 225.339844 128.109375 222.410156 128.246094 219.484375 128.535156 C 219.027344 128.585938 218.574219 128.675781 218.128906 128.800781 C 217.6875 128.925781 217.257812 129.089844 216.839844 129.289062 C 216.421875 129.492188 216.027344 129.722656 215.648438 129.992188 C 215.273438 130.257812 214.921875 130.554688 214.59375 130.882812 C 214.265625 131.207031 213.96875 131.558594 213.703125 131.9375 C 213.4375 132.3125 213.203125 132.710938 213.003906 133.128906 C 212.804688 133.542969 212.640625 133.972656 212.511719 134.417969 C 212.386719 134.863281 212.296875 135.316406 212.246094 135.773438 C 211.957031 138.699219 211.824219 141.628906 211.847656 144.566406 C 211.871094 141.628906 211.738281 138.699219 211.445312 135.773438 C 211.394531 135.316406 211.308594 134.863281 211.179688 134.417969 C 211.054688 133.972656 210.890625 133.542969 210.691406 133.128906 C 210.492188 132.710938 210.257812 132.3125 209.992188 131.9375 C 209.722656 131.558594 209.425781 131.207031 209.101562 130.882812 C 208.773438 130.554688 208.421875 130.257812 208.042969 129.992188 C 207.667969 129.722656 207.269531 129.492188 206.855469 129.289062 C 206.4375 129.089844 206.007812 128.925781 205.5625 128.800781 C 205.117188 128.675781 204.667969 128.585938 204.207031 128.535156 C 201.285156 128.246094 198.351562 128.109375 195.414062 128.136719 C 198.351562 128.160156 201.285156 128.023438 204.207031 127.734375 C 204.667969 127.683594 205.117188 127.59375 205.5625 127.46875 C 206.007812 127.34375 206.4375 127.179688 206.855469 126.980469 C 207.269531 126.78125 207.667969 126.546875 208.042969 126.277344 C 208.421875 126.011719 208.773438 125.714844 209.101562 125.386719 C 209.425781 125.0625 209.722656 124.710938 209.992188 124.332031 C 210.257812 123.957031 210.492188 123.558594 210.691406 123.140625 C 210.890625 122.726562 211.054688 122.296875 211.179688 121.851562 C 211.308594 121.40625 211.394531 120.953125 211.445312 120.496094 C 211.738281 117.570312 211.871094 114.640625 211.847656 111.703125 C 211.824219 114.640625 211.957031 117.570312 212.246094 120.496094 Z M 212.246094 120.496094 " fill-opacity="1" fill-rule="nonzero"/></g><path fill="#303030" d="M 199.894531 88.070312 C 199.957031 88.632812 200.109375 89.171875 200.355469 89.683594 C 200.601562 90.199219 200.925781 90.65625 201.328125 91.054688 C 201.730469 91.457031 202.1875 91.78125 202.699219 92.027344 C 203.210938 92.273438 203.75 92.425781 204.316406 92.488281 C 206.101562 92.667969 207.890625 92.746094 209.683594 92.734375 C 207.890625 92.71875 206.101562 92.800781 204.316406 92.976562 C 203.75 93.039062 203.210938 93.191406 202.699219 93.4375 C 202.1875 93.683594 201.730469 94.007812 201.328125 94.410156 C 200.925781 94.8125 200.601562 95.269531 200.355469 95.78125 C 200.109375 96.292969 199.957031 96.832031 199.894531 97.398438 C 199.71875 99.183594 199.636719 100.972656 199.652344 102.765625 C 199.664062 100.972656 199.585938 99.183594 199.40625 97.398438 C 199.34375 96.832031 199.191406 96.292969 198.945312 95.78125 C 198.699219 95.269531 198.375 94.8125 197.972656 94.410156 C 197.574219 94.007812 197.113281 93.683594 196.601562 93.4375 C 196.089844 93.191406 195.550781 93.039062 194.988281 92.976562 C 193.203125 92.800781 191.410156 92.71875 189.617188 92.734375 C 191.410156 92.746094 193.203125 92.667969 194.988281 92.488281 C 195.550781 92.425781 196.089844 92.273438 196.601562 92.027344 C 197.113281 91.78125 197.570312 91.457031 197.972656 91.054688 C 198.375 90.652344 198.699219 90.195312 198.945312 89.683594 C 199.191406 89.171875 199.34375 88.632812 199.40625 88.070312 C 199.582031 86.285156 199.664062 84.492188 199.652344 82.699219 C 199.636719 84.492188 199.71875 86.285156 199.894531 88.070312 Z M 199.894531 88.070312 " fill-opacity="1" fill-rule="nonzero"/><path stroke-linecap="butt" transform="matrix(1.175947, -0.178816, 0.178816, 1.175947, 3.055312, 190.325071)" fill="none" stroke-linejoin="miter" d="M 59.292476 58.878796 C 55.29308 58.878529 51.674018 58.059144 48.42555 56.419159 C 45.194094 54.798369 42.640114 52.370427 40.763116 49.138579 C 38.899106 45.908705 37.968074 41.917175 37.965789 37.169987 C 37.968214 33.549603 38.454527 30.50439 39.433972 28.039076 C 40.423158 25.575243 41.688081 23.591816 43.218506 22.090559 C 44.7514 20.573069 46.367697 19.490129 48.066902 18.844986 C 49.763354 18.196102 51.290592 17.873597 52.642616 17.873237 C 53.814874 17.875437 54.738574 18.092298 55.413222 18.527065 C 56.091117 18.962326 56.428407 19.518527 56.428341 20.196162 C 56.428767 20.870551 56.166629 21.458508 55.639665 21.953047 C 55.114675 22.434599 54.573469 23.066488 54.016046 23.848713 C 53.461092 24.614704 53.182862 25.854608 53.18185 27.565177 C 53.182403 30.03003 53.858491 32.006327 55.21336 33.494563 C 56.580439 34.968045 58.45808 35.705326 60.846777 35.703158 C 63.071943 35.706019 64.890138 34.999246 66.300871 33.586087 C 67.71485 32.173421 68.42122 30.324297 68.41998 28.038716 C 68.422607 26.251992 67.939365 24.471108 66.979992 22.697547 C 66.032829 20.909233 64.958892 19.015275 63.754443 17.018426 C 62.569189 15.004566 61.492048 12.847699 60.532759 10.549307 C 59.586172 8.232916 59.112092 5.692735 59.110518 2.928765 C 59.110559 0.0886397 59.743083 -2.585552 61.004842 -5.094303 C 62.265824 -7.619782 64.219737 -9.677817 66.867075 -11.271656 C 69.509895 -12.879468 72.861212 -13.685291 76.920036 -13.682632 C 80.554395 -13.684725 83.464534 -13.052862 85.644455 -11.791278 C 87.837363 -10.52772 89.423184 -8.898068 90.398179 -6.899571 C 91.389902 -4.901852 91.886943 -2.796656 91.886551 -0.587725 C 91.885656 2.192479 91.142878 4.783469 89.654476 7.187999 C 88.181529 9.578271 86.184044 11.420407 83.659269 12.710669 C 83.298097 13.207166 82.712014 13.304066 81.900527 13.004615 C 81.104495 12.690905 80.441696 12.178217 79.917635 11.47403 C 79.390821 10.766104 79.347275 10.134985 79.780503 9.579687 C 80.217471 9.021636 80.557229 8.272749 80.79752 7.326038 C 81.050512 6.361327 81.096987 5.3785 80.930944 4.373323 C 80.78085 3.35064 80.382122 2.499422 79.737515 1.823411 C 79.08966 1.146905 78.121059 0.810276 76.828957 0.809783 C 75.29766 0.809457 73.959736 1.306908 72.815678 2.29889 C 71.674089 3.274638 71.103705 4.928523 71.105019 7.257299 C 71.043416 9.300798 71.583083 11.365971 72.726773 13.456556 C 73.867711 15.5434 75.204799 17.716543 76.739025 19.969489 C 78.271979 22.208954 79.623911 24.590305 80.797576 27.11728 C 81.968487 29.640516 82.553466 32.347041 82.5535 35.230361 C 82.553226 39.797783 81.555112 43.871327 79.556406 47.447253 C 77.556429 51.009699 74.816057 53.805166 71.328797 55.832667 C 67.857771 57.862637 63.843664 58.876602 59.292476 58.878796 Z M 92.4424 55.000614 C 89.781547 55.001259 87.913838 54.089434 86.8313 52.273891 C 85.762735 50.45383 85.22947 48.193645 85.229243 45.486351 C 85.229903 43.144588 85.522316 40.58809 86.108742 37.823844 C 86.695167 35.059597 87.445484 32.353491 88.362447 29.709264 C 91.502749 20.722999 94.163692 13.185223 96.341536 7.098688 C 98.538081 0.998387 100.646849 -3.607167 102.678072 -6.719742 C 104.705555 -9.829563 106.951723 -11.38475 109.416576 -11.385303 C 111.326392 -11.383889 112.51136 -10.678858 112.977482 -9.265975 C 113.443605 -7.853092 112.994746 -5.66585 111.624414 -2.705235 C 110.468257 -0.0608413 109.190624 2.50861 107.794762 5.003614 C 106.41238 7.497345 105.44167 9.817828 104.885386 11.968805 C 104.406077 13.875708 104.457155 14.959735 105.042853 15.214887 C 105.631019 15.453805 106.412365 15.077671 107.386891 14.086484 C 109.116546 12.432825 110.906023 11.150337 112.753063 10.232034 C 114.602077 9.300744 116.539791 8.834705 118.56945 8.834412 C 121.392848 8.835231 123.481886 9.667771 124.835575 11.338525 C 126.188981 12.989306 126.864859 14.988824 126.863705 17.333833 C 126.864233 18.925052 126.616094 20.382125 126.119287 21.705055 C 125.639209 23.027206 125.150093 24.321408 124.65568 25.584909 C 124.158514 26.844669 123.911286 28.252055 123.911739 29.800078 C 123.911865 32.879398 125.331744 34.420702 128.17187 34.420743 C 129.583816 34.41953 130.763789 33.977783 131.709529 33.088517 C 132.673478 32.188732 133.612064 31.06253 134.529027 29.707159 C 135.022863 28.971735 135.670826 28.70819 136.465929 28.918783 C 137.277759 29.128598 137.938642 29.544663 138.449565 30.160485 C 138.977216 30.775529 139.059438 31.392598 138.696726 32.008445 C 138.081239 32.997757 137.337699 34.43597 136.467588 36.313344 C 135.609685 38.175964 134.581488 40.175458 133.380245 42.308084 C 132.177729 44.427229 130.769817 46.455349 129.162508 48.396678 C 127.569173 50.333488 125.773236 51.920599 123.775685 53.151515 C 121.778133 54.382432 119.515346 54.998347 116.990571 54.999754 C 113.971173 54.999027 111.857207 54.046433 110.656155 52.136468 C 109.46809 50.228477 108.876174 47.982627 108.877161 45.398423 C 108.875068 43.05292 109.244448 40.820374 109.981562 38.703538 C 110.715922 36.582962 111.438869 34.646671 112.144895 32.887184 C 112.850922 31.127697 113.204362 29.633486 113.202462 28.400813 C 113.203901 27.364633 112.879924 26.567965 112.233777 26.011304 C 111.587629 25.454642 110.739725 25.176228 109.686324 25.178814 C 107.912586 25.178162 106.269011 25.938062 104.749597 27.45428 C 103.248886 28.956732 102.031601 30.910864 101.098237 33.313428 C 100.183082 35.705473 99.72368 38.289727 99.722785 41.069931 L 99.723523 45.215639 C 99.722703 46.750182 99.537105 48.276558 99.160235 49.79378 C 98.798821 51.296743 98.094643 52.541633 97.040221 53.533958 C 96.004502 54.512518 94.472059 55.000321 92.4424 55.000614 Z M 142.193156 54.998751 C 139.053914 54.999731 136.67919 53.708525 135.069478 51.121886 C 133.475999 48.537716 132.679917 45.187881 132.681723 41.069135 C 132.681931 38.468203 133.00446 35.713656 133.650791 32.795751 C 134.295355 29.867612 135.251111 26.990116 136.511565 24.162274 C 137.774772 21.338172 139.361262 18.76918 141.267788 16.454805 C 143.177561 14.140924 145.395253 12.29241 147.917618 10.908772 C 150.44323 9.525627 153.305371 8.834762 156.507782 8.833422 C 158.354429 8.835195 159.78291 9.009229 160.789978 9.355029 C 161.812996 9.683324 162.58723 10.096695 163.113173 10.591895 C 163.638623 11.090341 164.079792 11.509536 164.442186 11.85696 C 164.817282 12.186384 165.313687 12.351557 165.928154 12.351983 C 166.968074 12.350669 167.809493 12.060071 168.453398 11.473695 C 169.100549 10.887813 169.821103 10.299805 170.617812 9.713413 C 171.430755 9.129488 172.54207 8.833426 173.953522 8.835459 C 175.186196 8.833559 176.03615 9.142181 176.500632 9.757585 C 176.967866 10.376729 177.200024 11.209261 177.199363 12.262168 C 177.201598 13.973231 176.719444 15.680394 175.757135 17.377658 C 174.81106 19.077391 173.812176 21.277328 172.759495 23.983961 C 171.225606 27.364825 170.656594 29.949021 171.045967 31.735561 C 171.451573 33.52457 172.670582 34.420797 174.696995 34.42001 C 176.29146 34.419976 177.673223 34.005593 178.845037 33.180599 C 180.019319 32.339373 181.069206 31.180269 182.000696 29.707522 C 182.481051 28.97337 183.105793 28.709616 183.871182 28.919012 C 184.652804 29.130877 185.301194 29.541721 185.811624 30.160789 C 186.336027 30.775339 186.448458 31.390358 186.148421 32.009093 C 185.038086 34.155542 183.850775 36.546064 182.587476 39.174166 C 181.326151 41.789281 179.921327 44.29953 178.373003 46.704914 C 176.840628 49.092792 175.090329 51.078814 173.119848 52.655992 C 171.151835 54.216936 168.873609 54.999915 166.289405 54.998928 C 163.090241 55.000761 160.828868 53.706861 159.504298 51.12372 C 158.183469 48.537827 157.79987 45.337081 158.356748 41.521977 L 157.994956 41.520111 C 156.147876 45.27854 153.86335 48.462216 151.143638 51.078126 C 148.437407 53.692765 145.454995 54.999804 142.193156 54.998751 Z M 151.43424 35.885258 C 153.028705 35.885224 154.42712 35.426867 155.629485 34.510188 C 156.831072 33.576781 157.769658 32.450579 158.445737 31.128336 C 159.121815 29.806093 159.460101 28.498921 159.460594 27.206819 C 159.461414 25.672276 159.024889 24.47981 158.152007 23.622927 C 157.29458 22.751786 156.131803 22.315873 154.660428 22.314693 C 153.065963 22.314727 151.683991 22.752331 150.511759 23.623766 C 149.338748 24.478473 148.428813 25.56917 147.782943 26.889363 C 147.136578 28.212803 146.813823 29.548911 146.81369 30.904182 C 146.813364 32.435478 147.225965 33.654203 148.055728 34.554355 C 148.897206 35.443002 150.022788 35.883225 151.43424 35.885258 Z M 218.45742 29.707118 C 218.954502 28.972188 219.599218 28.708149 220.397568 28.919236 C 221.192671 29.129829 221.854048 29.542647 222.381205 30.160938 C 222.905609 30.775488 222.981338 31.391569 222.605145 32.008689 C 221.989658 32.998001 221.253105 34.433954 220.39598 36.313303 C 219.541324 38.176417 218.509881 40.175417 217.308637 42.308043 C 216.106122 44.427188 214.701457 46.455802 213.094148 48.397131 C 211.500813 50.333941 209.705369 51.917805 207.707324 53.151968 C 205.706526 54.382391 203.446986 54.9988 200.92221 55.000207 C 198.397435 55.001613 196.390168 54.526974 194.903162 53.580028 C 193.428365 52.618331 192.370311 51.384503 191.724766 49.884544 C 191.078936 48.364611 190.755937 46.84062 190.75351 45.305583 C 190.754756 43.156574 191.076649 41.039713 191.723424 38.949002 C 192.368926 36.84481 193.122214 34.840053 193.977289 32.930497 C 194.848597 31.02341 195.609818 29.272315 196.253965 27.679473 C 196.90058 26.070398 197.223545 24.711069 197.223352 23.598239 C 197.223017 23.11985 196.86997 22.405129 196.163716 21.457321 C 195.459437 20.496527 194.182138 19.677802 192.331818 19.001147 C 191.777901 20.219059 191.115738 21.646394 190.348576 23.283644 C 189.581414 24.920894 188.809448 26.524196 188.027174 28.086069 C 187.261626 29.647163 186.637211 30.957331 186.155408 32.006833 C 185.781776 32.803719 185.172565 33.096409 184.33102 32.885397 C 183.502463 32.676361 182.812568 32.232632 182.257597 31.556963 C 181.716106 30.880022 181.62365 30.264719 181.987215 29.708794 C 182.85895 28.476095 183.81059 26.674233 184.849614 24.297701 C 185.901626 21.923145 186.825551 19.691879 187.621389 17.603904 C 186.704032 17.301642 185.968818 16.784585 185.412993 16.048994 C 184.85639 15.296676 184.577397 14.094947 184.579757 12.441054 C 184.577003 11.148458 184.917339 9.871493 185.594271 8.609172 C 186.267957 7.346358 187.222642 6.28904 188.456069 5.430233 C 189.68773 4.561191 191.129624 4.122733 192.783517 4.125092 C 195.683565 4.12428 198.472229 4.6812 201.146755 5.792112 C 203.821282 6.903025 206.022674 8.307389 207.750439 10.008452 C 209.47792 11.68954 210.343481 13.359148 210.344862 15.010288 C 210.344134 16.740831 210.01866 18.378809 209.374931 19.92521 C 208.726684 21.457636 208.066019 23.028035 207.38969 24.635914 C 206.715335 26.230806 206.376321 27.979666 206.374908 29.889482 C 206.374414 31.181584 206.804504 32.263452 207.661931 33.134593 C 208.518086 33.992254 209.997694 34.419875 212.100263 34.420702 C 213.515455 34.419982 214.692675 33.974495 215.641169 33.088969 C 216.601871 32.188691 217.54095 31.059243 218.45742 29.707118 Z M 227.134508 54.99994 C 223.513631 55.000761 220.852074 53.739018 219.153579 51.211959 C 217.454591 48.688146 216.605741 45.576099 216.606041 41.882313 C 216.60778 38.441201 217.096569 34.81173 218.072408 30.993898 C 219.064974 27.175288 220.559811 23.5925 222.557412 20.242288 C 224.57174 16.891297 227.067278 14.154932 230.040284 12.035945 C 233.031992 9.903194 236.496207 8.835508 240.432435 8.836134 C 242.282822 8.835154 243.708131 9.051889 244.718103 9.48782 C 245.737037 9.908504 246.510928 10.41151 247.039282 11.000087 C 247.564882 11.584923 248.006486 12.110481 248.36734 12.577255 C 248.744922 13.043251 249.241193 13.274839 249.85566 13.275266 C 250.350776 13.274153 250.750549 12.720411 251.049473 11.606561 C 251.36463 10.495179 251.823923 8.850975 252.424599 6.67021 C 253.04073 4.475185 254.004344 1.808156 255.312193 -1.331371 C 256.469036 -4.155037 257.617345 -6.289069 258.760365 -7.732972 C 259.903385 -9.176875 260.990559 -10.144289 262.029366 -10.640719 C 263.081161 -11.135174 264.072213 -11.383088 265.002523 -11.384461 C 266.596988 -11.384495 267.656264 -10.595601 268.183597 -9.017286 C 268.706905 -7.456192 268.353532 -5.350762 267.124466 -2.707489 L 256.684642 23.983427 C 255.153999 27.364784 254.58174 29.948486 254.973866 31.738767 C 255.379966 33.524529 256.595728 34.420263 258.625387 34.419969 C 260.216606 34.419442 261.601616 34.005552 262.77343 33.180558 C 263.944466 32.338838 264.997599 31.180228 265.929088 29.707481 C 266.409444 28.973329 267.030939 28.709081 267.799575 28.918971 C 268.581197 29.130836 269.225847 29.544433 269.73677 30.160255 C 270.26442 30.775299 270.376851 31.390317 270.076814 32.009052 C 268.963232 34.155007 267.775921 36.54553 266.515375 39.177372 C 265.250804 41.791993 263.846473 44.298996 262.298149 46.70438 C 260.76528 49.095505 259.015475 51.078279 257.044994 52.655457 C 255.076487 54.219648 252.802002 54.999874 250.217798 54.998887 C 247.271309 54.999281 245.086091 53.706996 243.655652 51.121043 C 242.244692 48.538053 241.784938 45.335693 242.281894 41.521443 L 241.920102 41.519577 C 240.013593 45.275612 237.781509 48.463941 235.224836 51.078069 C 232.67141 53.69269 229.974634 54.999981 227.134508 54.99994 Z M 235.541905 35.885903 C 237.073695 35.882982 238.428422 35.427947 239.601073 34.510071 C 240.772452 33.578715 241.694804 32.450044 242.370883 31.127801 C 243.046961 29.805558 243.385247 28.498386 243.38574 27.206284 C 243.38538 25.85426 242.988879 24.70442 242.192989 23.756269 C 241.395827 22.794638 240.10339 22.315756 238.312926 22.315882 C 236.841551 22.314703 235.532981 22.750182 234.39371 23.623307 C 233.250413 24.479211 232.357206 25.569129 231.711336 26.889322 C 231.064971 28.212762 230.741722 29.552117 230.742083 30.904141 C 230.739196 32.255671 231.109021 33.428029 231.845064 34.420228 C 232.580329 35.395699 233.814609 35.885669 235.541905 35.885903 Z M 235.541905 35.885903 " stroke="#f0dfc8" stroke-width="6.925335" stroke-opacity="1" stroke-miterlimit="4"/><g fill="#303030" fill-opacity="1"><g transform="translate(57.962041, 248.148448)"><g><path d="M 25.34375 0.8125 C 20.632812 1.53125 16.234375 1.222656 12.140625 -0.109375 C 8.046875 -1.453125 4.601562 -3.859375 1.8125 -7.328125 C -0.96875 -10.796875 -2.78125 -15.320312 -3.625 -20.90625 C -4.269531 -25.164062 -4.234375 -28.832031 -3.515625 -31.90625 C -2.796875 -34.976562 -1.664062 -37.535156 -0.125 -39.578125 C 1.40625 -41.628906 3.109375 -43.1875 4.984375 -44.25 C 6.859375 -45.320312 8.59375 -45.976562 10.1875 -46.21875 C 11.5625 -46.425781 12.6875 -46.332031 13.5625 -45.9375 C 14.4375 -45.550781 14.9375 -44.960938 15.0625 -44.171875 C 15.175781 -43.378906 14.96875 -42.644531 14.4375 -41.96875 C 13.914062 -41.289062 13.398438 -40.445312 12.890625 -39.4375 C 12.378906 -38.4375 12.273438 -36.925781 12.578125 -34.90625 C 13.023438 -32 14.175781 -29.800781 16.03125 -28.3125 C 17.882812 -26.820312 20.222656 -26.289062 23.046875 -26.71875 C 25.648438 -27.113281 27.65625 -28.269531 29.0625 -30.1875 C 30.476562 -32.101562 30.984375 -34.398438 30.578125 -37.078125 C 30.253906 -39.171875 29.375 -41.1875 27.9375 -43.125 C 26.5 -45.0625 24.894531 -47.097656 23.125 -49.234375 C 21.351562 -51.367188 19.703125 -53.707031 18.171875 -56.25 C 16.640625 -58.800781 15.625 -61.703125 15.125 -64.953125 C 14.613281 -68.285156 14.875 -71.546875 15.90625 -74.734375 C 16.945312 -77.929688 18.878906 -80.707031 21.703125 -83.0625 C 24.523438 -85.425781 28.328125 -86.972656 33.109375 -87.703125 C 37.378906 -88.347656 40.910156 -88.117188 43.703125 -87.015625 C 46.492188 -85.921875 48.648438 -84.285156 50.171875 -82.109375 C 51.691406 -79.941406 52.648438 -77.550781 53.046875 -74.9375 C 53.535156 -71.675781 53.125 -68.503906 51.8125 -65.421875 C 50.5 -62.335938 48.476562 -59.804688 45.75 -57.828125 C 45.40625 -57.179688 44.734375 -56.96875 43.734375 -57.1875 C 42.734375 -57.40625 41.863281 -57.882812 41.125 -58.625 C 40.394531 -59.363281 40.226562 -60.097656 40.625 -60.828125 C 41.039062 -61.566406 41.304688 -62.515625 41.421875 -63.671875 C 41.535156 -64.828125 41.410156 -65.988281 41.046875 -67.15625 C 40.679688 -68.332031 40.0625 -69.257812 39.1875 -69.9375 C 38.3125 -70.625 37.113281 -70.851562 35.59375 -70.625 C 33.78125 -70.34375 32.289062 -69.519531 31.125 -68.15625 C 29.96875 -66.800781 29.597656 -64.75 30.015625 -62 C 30.304688 -59.59375 31.304688 -57.257812 33.015625 -55 C 34.722656 -52.75 36.6875 -50.441406 38.90625 -48.078125 C 41.125 -45.710938 43.144531 -43.148438 44.96875 -40.390625 C 46.789062 -37.628906 47.960938 -34.546875 48.484375 -31.140625 C 49.296875 -25.785156 48.84375 -20.828125 47.125 -16.265625 C 45.414062 -11.710938 42.695312 -7.929688 38.96875 -4.921875 C 35.238281 -1.910156 30.695312 0 25.34375 0.8125 Z M 25.34375 0.8125 "/></g></g></g><g fill="#303030" fill-opacity="1"><g transform="translate(114.202803, 239.59639)"><g><path d="M 7.390625 -1.125 C 4.273438 -0.644531 1.921875 -1.375 0.328125 -3.3125 C -1.253906 -5.257812 -2.289062 -7.828125 -2.78125 -11.015625 C -3.195312 -13.765625 -3.3125 -16.820312 -3.125 -20.1875 C -2.9375 -23.550781 -2.535156 -26.867188 -1.921875 -30.140625 C 0.160156 -41.265625 1.941406 -50.609375 3.421875 -58.171875 C 4.898438 -65.734375 6.554688 -71.523438 8.390625 -75.546875 C 10.222656 -79.566406 12.585938 -81.796875 15.484375 -82.234375 C 17.722656 -82.578125 19.242188 -81.957031 20.046875 -80.375 C 20.847656 -78.789062 20.71875 -76.140625 19.65625 -72.421875 C 18.738281 -69.085938 17.691406 -65.832031 16.515625 -62.65625 C 15.335938 -59.488281 14.617188 -56.59375 14.359375 -53.96875 C 14.109375 -51.625 14.347656 -50.359375 15.078125 -50.171875 C 15.816406 -49.984375 16.679688 -50.5625 17.671875 -51.90625 C 19.378906 -54.164062 21.238281 -56.003906 23.25 -57.421875 C 25.269531 -58.835938 27.472656 -59.726562 29.859375 -60.09375 C 33.191406 -60.601562 35.800781 -60 37.6875 -58.28125 C 39.582031 -56.5625 40.738281 -54.328125 41.15625 -51.578125 C 41.4375 -49.691406 41.40625 -47.925781 41.0625 -46.28125 C 40.71875 -44.644531 40.367188 -43.039062 40.015625 -41.46875 C 39.660156 -39.894531 39.625 -38.203125 39.90625 -36.390625 C 40.445312 -32.765625 42.382812 -31.207031 45.71875 -31.71875 C 47.382812 -31.96875 48.695312 -32.703125 49.65625 -33.921875 C 50.625 -35.148438 51.523438 -36.644531 52.359375 -38.40625 C 52.804688 -39.351562 53.519531 -39.773438 54.5 -39.671875 C 55.476562 -39.566406 56.332031 -39.195312 57.0625 -38.5625 C 57.789062 -37.9375 58 -37.222656 57.6875 -36.421875 C 57.125 -35.160156 56.503906 -33.347656 55.828125 -30.984375 C 55.148438 -28.617188 54.296875 -26.082031 53.265625 -23.375 C 52.234375 -20.664062 50.953125 -18.023438 49.421875 -15.453125 C 47.890625 -12.890625 46.054688 -10.703125 43.921875 -8.890625 C 41.785156 -7.085938 39.234375 -5.960938 36.265625 -5.515625 C 32.710938 -4.972656 30.054688 -5.71875 28.296875 -7.75 C 26.546875 -9.78125 25.441406 -12.316406 24.984375 -15.359375 C 24.566406 -18.109375 24.601562 -20.796875 25.09375 -23.421875 C 25.582031 -26.046875 26.085938 -28.457031 26.609375 -30.65625 C 27.128906 -32.851562 27.28125 -34.671875 27.0625 -36.109375 C 26.875 -37.347656 26.347656 -38.226562 25.484375 -38.75 C 24.628906 -39.28125 23.585938 -39.453125 22.359375 -39.265625 C 20.265625 -38.953125 18.460938 -37.773438 16.953125 -35.734375 C 15.441406 -33.691406 14.359375 -31.175781 13.703125 -28.1875 C 13.046875 -25.195312 12.96875 -22.070312 13.46875 -18.8125 L 14.203125 -13.9375 C 14.472656 -12.125 14.523438 -10.296875 14.359375 -8.453125 C 14.203125 -6.617188 13.597656 -5.03125 12.546875 -3.6875 C 11.492188 -2.34375 9.773438 -1.488281 7.390625 -1.125 Z M 7.390625 -1.125 "/></g></g></g><g fill="#303030" fill-opacity="1"><g transform="translate(168.597822, 231.324998)"><g><path d="M 11.515625 -1.75 C 7.828125 -1.1875 4.804688 -2.28125 2.453125 -5.03125 C 0.109375 -7.78125 -1.425781 -11.582031 -2.15625 -16.4375 C -2.625 -19.488281 -2.738281 -22.785156 -2.5 -26.328125 C -2.257812 -29.878906 -1.648438 -33.4375 -0.671875 -37 C 0.296875 -40.5625 1.695312 -43.867188 3.53125 -46.921875 C 5.363281 -49.972656 7.640625 -52.539062 10.359375 -54.625 C 13.078125 -56.707031 16.320312 -58.035156 20.09375 -58.609375 C 22.257812 -58.929688 23.96875 -58.984375 25.21875 -58.765625 C 26.46875 -58.546875 27.445312 -58.191406 28.15625 -57.703125 C 28.863281 -57.222656 29.460938 -56.816406 29.953125 -56.484375 C 30.453125 -56.148438 31.066406 -56.039062 31.796875 -56.15625 C 33.023438 -56.34375 33.96875 -56.835938 34.625 -57.640625 C 35.28125 -58.453125 36.023438 -59.269531 36.859375 -60.09375 C 37.691406 -60.925781 38.941406 -61.46875 40.609375 -61.71875 C 42.054688 -61.945312 43.101562 -61.738281 43.75 -61.09375 C 44.40625 -60.445312 44.828125 -59.503906 45.015625 -58.265625 C 45.316406 -56.242188 45.054688 -54.15625 44.234375 -52 C 43.421875 -49.84375 42.644531 -47.078125 41.90625 -43.703125 C 40.695312 -39.441406 40.484375 -36.296875 41.265625 -34.265625 C 42.054688 -32.234375 43.644531 -31.398438 46.03125 -31.765625 C 47.914062 -32.046875 49.472656 -32.78125 50.703125 -33.96875 C 51.929688 -35.164062 52.957031 -36.710938 53.78125 -38.609375 C 54.226562 -39.566406 54.921875 -39.988281 55.859375 -39.875 C 56.804688 -39.757812 57.640625 -39.382812 58.359375 -38.75 C 59.085938 -38.125 59.328125 -37.421875 59.078125 -36.640625 C 58.160156 -33.910156 57.191406 -30.894531 56.171875 -27.59375 C 55.160156 -24.300781 53.960938 -21.101562 52.578125 -18 C 51.203125 -14.894531 49.492188 -12.242188 47.453125 -10.046875 C 45.421875 -7.847656 42.890625 -6.519531 39.859375 -6.0625 C 36.085938 -5.488281 33.191406 -6.597656 31.171875 -9.390625 C 29.148438 -12.191406 28.128906 -15.890625 28.109375 -20.484375 L 27.671875 -20.421875 C 26.160156 -15.671875 24.046875 -11.515625 21.328125 -7.953125 C 18.617188 -4.398438 15.347656 -2.332031 11.515625 -1.75 Z M 18.953125 -25.875 C 20.828125 -26.15625 22.390625 -26.945312 23.640625 -28.25 C 24.890625 -29.550781 25.789062 -31.039062 26.34375 -32.71875 C 26.90625 -34.40625 27.070312 -36.007812 26.84375 -37.53125 C 26.570312 -39.332031 25.851562 -40.660156 24.6875 -41.515625 C 23.519531 -42.378906 22.066406 -42.679688 20.328125 -42.421875 C 18.441406 -42.128906 16.890625 -41.367188 15.671875 -40.140625 C 14.453125 -38.921875 13.582031 -37.472656 13.0625 -35.796875 C 12.539062 -34.128906 12.398438 -32.503906 12.640625 -30.921875 C 12.921875 -29.109375 13.625 -27.75 14.75 -26.84375 C 15.875 -25.9375 17.273438 -25.613281 18.953125 -25.875 Z M 18.953125 -25.875 "/></g></g></g><g fill="#303030" fill-opacity="1"><g transform="translate(224.404298, 222.838979)"><g><path d="M 40.859375 -36.65625 C 41.304688 -37.601562 42.019531 -38.023438 43 -37.921875 C 43.976562 -37.816406 44.832031 -37.445312 45.5625 -36.8125 C 46.289062 -36.1875 46.488281 -35.472656 46.15625 -34.671875 C 45.613281 -33.410156 45 -31.597656 44.3125 -29.234375 C 43.632812 -26.867188 42.78125 -24.332031 41.75 -21.625 C 40.71875 -18.914062 39.4375 -16.273438 37.90625 -13.703125 C 36.375 -11.140625 34.539062 -8.953125 32.40625 -7.140625 C 30.28125 -5.335938 27.734375 -4.210938 24.765625 -3.765625 C 21.785156 -3.316406 19.34375 -3.519531 17.4375 -4.375 C 15.53125 -5.238281 14.0625 -6.5 13.03125 -8.15625 C 12.007812 -9.8125 11.359375 -11.546875 11.078125 -13.359375 C 10.691406 -15.890625 10.691406 -18.441406 11.078125 -21.015625 C 11.460938 -23.585938 11.992188 -26.070312 12.671875 -28.46875 C 13.347656 -30.863281 13.921875 -33.0625 14.390625 -35.0625 C 14.859375 -37.0625 14.992188 -38.71875 14.796875 -40.03125 C 14.703125 -40.601562 14.15625 -41.382812 13.15625 -42.375 C 12.164062 -43.375 10.519531 -44.109375 8.21875 -44.578125 C 7.789062 -43.023438 7.269531 -41.222656 6.65625 -39.171875 C 6.039062 -37.117188 5.421875 -35.097656 4.796875 -33.109375 C 4.171875 -31.128906 3.664062 -29.476562 3.28125 -28.15625 C 2.988281 -27.15625 2.332031 -26.707031 1.3125 -26.8125 C 0.289062 -26.914062 -0.601562 -27.316406 -1.375 -28.015625 C -2.144531 -28.710938 -2.363281 -29.414062 -2.03125 -30.125 C -1.238281 -31.738281 -0.441406 -34.03125 0.359375 -37 C 1.171875 -39.96875 1.859375 -42.757812 2.421875 -45.375 C 1.285156 -45.5625 0.328125 -46.039062 -0.453125 -46.8125 C -1.242188 -47.582031 -1.785156 -48.941406 -2.078125 -50.890625 C -2.304688 -52.410156 -2.132812 -53.972656 -1.5625 -55.578125 C -1 -57.179688 -0.0703125 -58.597656 1.21875 -59.828125 C 2.519531 -61.066406 4.148438 -61.835938 6.109375 -62.140625 C 9.503906 -62.660156 12.875 -62.507812 16.21875 -61.6875 C 19.570312 -60.863281 22.414062 -59.609375 24.75 -57.921875 C 27.082031 -56.234375 28.394531 -54.414062 28.6875 -52.46875 C 29 -50.445312 28.910156 -48.472656 28.421875 -46.546875 C 27.929688 -44.617188 27.429688 -42.648438 26.921875 -40.640625 C 26.410156 -38.640625 26.328125 -36.515625 26.671875 -34.265625 C 26.898438 -32.742188 27.597656 -31.550781 28.765625 -30.6875 C 29.929688 -29.832031 31.742188 -29.59375 34.203125 -29.96875 C 35.867188 -30.21875 37.1875 -30.953125 38.15625 -32.171875 C 39.125 -33.398438 40.023438 -34.894531 40.859375 -36.65625 Z M 40.859375 -36.65625 "/></g></g></g><g fill="#303030" fill-opacity="1"><g transform="translate(267.290592, 216.317622)"><g><path d="M 12.703125 -1.9375 C 8.429688 -1.28125 5.070312 -2.28125 2.625 -4.9375 C 0.1875 -7.601562 -1.359375 -11.113281 -2.015625 -15.46875 C -2.628906 -19.519531 -2.695312 -23.875 -2.21875 -28.53125 C -1.75 -33.195312 -0.640625 -37.6875 1.109375 -42 C 2.867188 -46.3125 5.3125 -49.976562 8.4375 -53 C 11.570312 -56.03125 15.457031 -57.898438 20.09375 -58.609375 C 22.257812 -58.929688 23.972656 -58.925781 25.234375 -58.59375 C 26.503906 -58.269531 27.5 -57.8125 28.21875 -57.21875 C 28.945312 -56.632812 29.566406 -56.101562 30.078125 -55.625 C 30.597656 -55.144531 31.222656 -54.960938 31.953125 -55.078125 C 32.523438 -55.160156 32.894531 -55.878906 33.0625 -57.234375 C 33.226562 -58.597656 33.476562 -60.617188 33.8125 -63.296875 C 34.144531 -65.972656 34.785156 -69.273438 35.734375 -73.203125 C 36.617188 -76.742188 37.597656 -79.460938 38.671875 -81.359375 C 39.753906 -83.265625 40.863281 -84.601562 42 -85.375 C 43.144531 -86.144531 44.257812 -86.613281 45.34375 -86.78125 C 47.226562 -87.0625 48.617188 -86.320312 49.515625 -84.5625 C 50.410156 -82.8125 50.375 -80.269531 49.40625 -76.9375 L 41.90625 -43.703125 C 40.695312 -39.441406 40.484375 -36.296875 41.265625 -34.265625 C 42.054688 -32.234375 43.644531 -31.398438 46.03125 -31.765625 C 47.914062 -32.046875 49.472656 -32.78125 50.703125 -33.96875 C 51.929688 -35.164062 52.957031 -36.710938 53.78125 -38.609375 C 54.226562 -39.566406 54.921875 -39.988281 55.859375 -39.875 C 56.804688 -39.757812 57.640625 -39.382812 58.359375 -38.75 C 59.085938 -38.125 59.328125 -37.421875 59.078125 -36.640625 C 58.160156 -33.910156 57.191406 -30.894531 56.171875 -27.59375 C 55.160156 -24.300781 53.960938 -21.101562 52.578125 -18 C 51.203125 -14.894531 49.492188 -12.242188 47.453125 -10.046875 C 45.421875 -7.847656 42.890625 -6.519531 39.859375 -6.0625 C 36.378906 -5.53125 33.570312 -6.65625 31.4375 -9.4375 C 29.3125 -12.21875 28.203125 -15.898438 28.109375 -20.484375 L 27.671875 -20.421875 C 26.085938 -15.660156 24.03125 -11.515625 21.5 -7.984375 C 18.96875 -4.453125 16.035156 -2.4375 12.703125 -1.9375 Z M 19.15625 -25.90625 C 20.96875 -26.175781 22.476562 -26.957031 23.6875 -28.25 C 24.90625 -29.550781 25.789062 -31.039062 26.34375 -32.71875 C 26.90625 -34.40625 27.070312 -36.007812 26.84375 -37.53125 C 26.601562 -39.113281 25.925781 -40.394531 24.8125 -41.375 C 23.707031 -42.351562 22.101562 -42.6875 20 -42.375 C 18.257812 -42.101562 16.796875 -41.359375 15.609375 -40.140625 C 14.429688 -38.921875 13.582031 -37.472656 13.0625 -35.796875 C 12.539062 -34.128906 12.398438 -32.503906 12.640625 -30.921875 C 12.878906 -29.328125 13.519531 -28.015625 14.5625 -26.984375 C 15.601562 -25.953125 17.132812 -25.59375 19.15625 -25.90625 Z M 19.15625 -25.90625 "/></g></g></g></svg>