<svg xmlns="http://www.w3.org/2000/svg" id="Layer_1" version="1.1" viewBox="131.6 46.67 2112.54 2389.23">
  <!-- Generator: Adobe Illustrator 29.3.0, SVG Export Plug-In . SVG Version: 2.1.0 Build 146)  -->
  <defs>
    <style>
      .st0 {
        fill: #a32429;
      }

      .st0, .st1 {
        fill-rule: evenodd;
      }

      .st1, .st2 {
        fill: #ba812f;
      }
    </style>
  </defs>
  <path class="st0" d="M1681.6,233.5c13.9,2.9,11.9-26.4,19.9-39.3,61.9-99.5,107.1-173.9,312.1-45.5,193.6,121.2,150,195.1,88,294.6-7.7,12.4-33.8,23.8-25.1,34.3,39.7,47.8,62.6,81.1,46.8,106.5-6.7,10.7-19.7,13-35.8,16.2,60.9,117.8,90.4,258.5,89,408.4-.8,91.3,41.7,204.6,36.7,301.1-4.8,94.5-54.7,241.4-86.2,329.1,1.9-60.2-7.4-197.3-30.8-238.3-30,77.2-67.1,151.3-110.9,221.6-94.6,152-213.4,276.1-342.9,367.2,15.1,146.2-17.4,301.6-58.8,409.3-113.1-35.3-136.5-217.4-253-260-122.3,33-245,37-358.6,8.3-222.9-56.4-496.9-211-718.7-289.9,87.2-39.7,254.3,19.6,323.6-40.3-27.1-56.7-47.2-118.4-60.1-183.4-89.7-85.8-261.9-26.6-343.4-112.5,78.4-84.7,201.7-183.6,339.5-234.5,24.6-156.4,83.6-317.8,178.2-469.8,44.1-70.9,93.5-135.8,146.9-194.1-47.1-2.9-170.7,46.3-223.8,74.6,64.8-67,174.6-176.6,257.2-222.6,84.4-47,204.4-59.3,285.9-100.4,133.8-67.4,273-103,405.5-100.4-2.1-12.7,2.9-24.3,8.5-33.3,14.8-23.8,55.5-18.5,110.3-6.9h0Z"/>
  <path class="st2" d="M1667.3,199.7c1.8-7.3,4.1-14.7,8.4-21.6l1.6-2.6c70.4-113.1,123.5-196,352.4-52.7,105.9,66.3,147.3,122.5,153.9,177.6,6.8,56.6-22.1,104.3-56.1,158.9h0c-3.9,6.3-8.8,11.2-13.8,15.6,14.8,18.6,26.6,35.2,34.4,50.7,13.6,27.3,15.6,51.4,1.2,74.5-5.5,8.8-11.8,14.6-18.9,18.7,11.3,24.8,21.3,50.1,29.9,75.9,32.2,96.4,47.8,202.9,46.7,314.2h0s0,0,0,0c-.4,39.7,8.6,86,17.5,133.1,10.9,56.7,22,114.5,19.2,169.3-2.6,49.9-16.6,112.5-34.2,173.8-17.1,60-37.8,119.4-53.8,164l-66.2,184.3,7.3-195.9h0s0,0,0,0c.2-7.8.3-17.2,0-27.8-.7-38.3-3.4-76.5-8.1-114.5-22.7,48.5-48.5,96.2-77.5,142.8h0c-46.9,75.6-101.2,146.3-162,211.2-9.2,9.8-18.9,19.8-29.2,30.1-45.3,45.2-94,86.8-145.7,124.4,1.3,15.7,2,31.4,2.2,47,.3,21.4-.1,42.8-1.4,64.1-6.4,109.2-32.3,214.7-63,294.6l-10.2,26.5-27.2-8.5c-67.5-21.1-104.6-80.4-142.2-140.5-29.9-47.8-60.1-96.2-103.8-116.4-14.3,3.7-28.8,7.1-43.3,10.1-17.7,3.6-35.4,6.6-53.3,8.9-91.5,12.4-181.9,8.4-267.5-13.2h-.3c-133.5-33.9-284.1-102-431.4-168.5-100.3-45.3-199.1-90-289.8-122.2l-71-25.2,68.6-31.1h0s0,0,0,0c46.2-21,105.8-18.4,165.3-15.9,50,2.1,99.9,4.2,132.1-8.6v-.2c-21.5-50-37.9-102.1-49.1-155.4-37.4-30.3-93.9-36.2-149.6-41.9-70.2-7.3-139.4-14.4-188.1-65.7l-19.7-20.7,19.3-20.8h0c11.4-12.4,23.7-25,36.7-37.5,12.6-12.3,26.5-24.9,41.5-37.9,71.1-61.7,159.9-122,256.5-160.5,2.9-16.9,6.2-33.8,9.8-50.5,5-22.8,10.6-45.4,16.8-67.9,32.4-116.7,83.2-233.7,152.8-345.5v-.2c25.9-41.5,53.9-81.5,84-120,2.6-3.4,5.3-6.8,8-10.1-47.4,15.6-99.4,38-128.9,53.7l-170,90.5,133.8-138.4c32.9-34,77.2-78.8,123.4-120.6,47.3-42.8,97.2-83.1,140.9-107.4h0s0,0,0,0c48-26.8,104.6-42.4,160.2-57.8,45.4-12.6,90.1-24.9,125.4-42.4,2.8-1.7,2.2-1.2,2.7-1.4h0c18.7-9.4,37.7-18.2,56.9-26.5,19.3-8.4,38.9-16.1,58.6-23.3,92-33.2,185.1-51.6,275.8-53.2,2.4-6.7,5.5-13.1,9.2-19.1,13.8-22.2,36.3-30.8,65.6-31.1,16.1-.1,35,2.5,56.2,6.5h0ZM1725,219.6c-6,26.5-11.6,51.6-49.7,43.6-25.2-5.3-47-9.1-63.5-9-8.4,0-13.7.7-14.7,2.3-1.6,2.5-3,5.3-3.8,7.9-.5,1.4-.7,2.9-.6,4.4l5.9,35.9-36.4-.7c-91.6-1.8-186.7,15.5-281.2,49.6-37.6,13.6-74.4,29.4-110.1,47.5h0s-1,.6-1,.6l.6-.3c-.2.1-.4.2-.6.3h0s0,0,0,0h0s0,0,0,0h0c-40.7,20.3-88.4,33.5-136.9,46.9-52,14.4-105.1,29.1-146.6,52.2h0c-39,21.8-85.3,59.3-129.8,99.5-3.5,3.2-7,6.4-10.5,9.6,10.3-3.3,20.3-6.2,29.8-8.7,11-3,22.2-5.4,33.5-7.2,10.1-1.7,20.3-2.4,30.6-2h0s63.6,3.7,63.6,3.7l-43,47c-22,24.1-43.1,49.1-63.2,74.8-5.3,6.8-9.2,11.8-11.8,15.3-24.3,32.1-47.1,65.3-68.3,99.5v.2c-66.7,107.1-115.2,218.6-146.1,329.6-11.7,42.2-21.1,85.1-28,128.4h0s0,0,0,0l-2.6,17.8-17,6.3c-95.4,35.3-183.9,94.7-254.3,155.8-17.4,15.2-34.4,30.9-50.7,47.3,33.7,19.4,80.2,24.2,127.3,29.1,69.3,7.2,139.7,14.5,192,64.4l7,6.7,1.9,9.5c8.6,44.2,21.1,87.5,37.4,129.5,2.9,7.6,6.2,15.4,9.7,23.6,2.4,5.6,6,13.3,10.6,23.1l.2.6h0s9.4,20.6,9.4,20.6l-17.2,14.8c-46.9,40.6-119.9,37.5-193.2,34.4-8.7-.4-17.4-.8-26-1,58.4,24.5,119.1,51.9,180.3,79.6,144.3,65.2,292,132,421.4,164.8h.3c77.9,19.8,160.4,23.3,244.3,12,16.5-2.3,32.9-5.1,49.2-8.4,16.1-3.2,32.1-7,47.9-11.2h0c.9-.3,1.9-.5,2.7-.8l8.7-2,8.7,3.2c67.9,24.8,105.6,85.1,142.8,144.5,25.3,40.4,50.2,80.3,82.5,102.1,23.9-70.4,42.9-156.7,48.1-245.5,1.1-19.9,1.5-39.8,1.2-59.7-.3-19.8-1.5-39.5-3.5-59.1h0s-1.9-17.7-1.9-17.7l14.6-10.2c54.2-38.3,105-81.2,151.9-128.1,69.4-69.6,130.7-146.9,182.5-230.4h0c36.9-59.3,69-121.3,96-185.6,4.2-10,8.3-20.2,12.3-30.6h0s0-.1,0-.1h0c0,0,0,.1,0,.1h0c0-.1.4-1.3.4-1.3-.1.4-.3.7-.5,1.1l22.6-60.3,32.1,56.2c11.1,19.4,19.3,54.9,25,94.5l3.4-11.5c16.5-57.6,29.7-115.7,32-160.4,2.4-47.5-8-101.6-18.2-154.7-9.6-50-19-99-18.6-144.9h0c.9-104.5-13.6-204.3-43.7-294.4-5.8-17.3-12.2-34.4-19.2-51.2-6.9-16.5-14.5-32.7-22.7-48.6h0s-18.3-35.7-18.3-35.7l39.3-7.9,1.7-.3c8.1-1.6,13.8-1.5,14.3-2.2,1.4-2.3-.1-7.5-4-15.2-7.4-14.9-21.9-33.5-40.4-55.7-25-30.1-5.3-46.5,15.6-63.9,3.3-2.7,6.7-5.6,7-6h0c28-45,51.8-84,47.5-119.5-4.5-37-38.1-78.4-125.8-133.3-177.5-111.2-216.7-50.1-268.5,33.2l-1.6,2.6c-.5.6-1.5,5-2.4,9.2h0Z"/>
  <path class="st1" d="M1105.3,662.1l173.9-334.9,288.3-44.8,187.7,272.9-224.5,366.1-310.9,30.8-114.5-290.1h0ZM1232.5,928.7l285-14.7,210.5-342.7-175.8-265.6-276.5,51.3-145.7,289,102.7,282.8Z"/>
  <path class="st1" d="M1024.9,1260.1l196.4-320.9,310.8-30.8,114.5,290-196.4,320.9-310.8,30.8-114.5-290.1h0ZM1152.1,1526.6l285-14.7,196.4-320.1-116.7-260.2-285,14.7-196.4,320.1,116.7,260.2Z"/>
  <path class="st1" d="M604.3,998.3l196.4-320.9,310.8-30.8,114.5,290-196.4,320.9-310.8,30.8-114.4-290.1h0ZM731.5,1264.8l285-14.7,196.4-320.1-94.2-246.1-321.6,23.3-168.3,274.9,102.7,282.8ZM1521.2,921.1l224.5-366.1,327.8,42.4,91.9,276-218.9,306.8-310.8,30.8-114.4-290.1h0ZM1648.4,1187.6l285-14.7,204.9-283.5-80.1-268.7-316-35.9-210.5,342.7,116.8,260.2Z"/>
  <path class="st1" d="M1445.5,1521.9l196.3-320.9,310.8-30.8,114.5,290.1-196.4,320.9-310.9,30.8-114.4-290.1h0ZM1572.7,1788.4l299.1-37.3,168.3-274.9-102.6-282.7-285,14.7-196.4,320.1,116.7,260.2h0ZM509.8,1618.8l210.5-343.5,310.8-30.8,114.5,290.1-238.6,388.7-322.2-101.7-75-202.8h0ZM597.5,1798l310.4,95.1,224.5-365.3-116.7-260.2-285,14.7-196.4,320.1,63.2,195.5Z"/>
  <path class="st1" d="M897.6,1922.9l238.6-388.7,310.8-30.8,116.9,291.6-212.9,342-215.1,27.7-238.3-241.8h0ZM1148.7,2141.1l203.3-34.2,196.4-320.1-116.7-260.2-285,14.7-224.5,365.3,226.5,234.5h0Z"/>
  <path class="st1" d="M1983.6,1622.2c-293.2,471-820.2,672.7-1177,450.6-356.9-222.1-408.5-784.1-115.3-1255,293.2-471,820.2-672.8,1177-450.6,356.8,222.1,408.5,784,115.3,1255ZM1837.4,416.8c-336.8-209.6-834.7-18.3-1112.1,427.4-277.4,445.7-229.3,976.9,107.5,1186.6,336.8,209.6,834.7,18.3,1112.1-427.4,277.4-445.7,229.3-976.9-107.5-1186.5h0Z"/>
</svg>